<?xml version="1.0" encoding="UTF-8" standalone="no"?>
<!-- Created with Inkscape (http://www.inkscape.org/) -->

<svg
   version="1.1"
   id="svg1"
   width="154.75348"
   height="179.06194"
   viewBox="0 0 154.75348 179.06194"
   xmlns="http://www.w3.org/2000/svg"
   xmlns:svg="http://www.w3.org/2000/svg">
  <defs
     id="defs1" />
  <g
     id="g1"
     transform="translate(-0.30760364,-1.8839627)">
    <path
       style="fill:#3e8fff;fill-opacity:1"
       d="M 78.048011,179.98994 C 66.196881,169.98698 56.077957,157.88742 49.541057,143.75015 39.953773,123.51807 37.481849,99.306997 46.089277,78.281795 58.206694,45.829924 85.944532,19.802295 118.91219,9.3692373 c 8.81551,-2.0005318 19.04142,-4.9710439 27.47719,-0.3283988 9.69393,6.3426705 9.97802,19.4003065 7.02378,29.4471435 -2.84842,7.3032 -6.8042,22.189286 -16.14364,20.209076 -15.21445,-1.594599 -29.65231,6.342879 -40.683087,16.174541 -20.533439,19.149266 -33.341055,47.648671 -30.86586,75.928441 1.334823,11.16535 6.312325,22.04886 14.050218,30.14586 l -0.55924,-0.20511 -1.1635,-0.75085 z M 28.584805,114.50588 C 18.975058,98.666067 12.575767,81.085702 6.2956627,63.724193 0.91565493,48.263289 -2.8617157,30.450605 4.0764345,14.880287 10.101731,4.3554546 23.838282,0.86304427 35.199999,2.1327162 47.13603,3.8920236 55.763531,13.479552 67.066031,16.731307 73.955254,19.540494 84.977391,15.167924 88.718453,13.65191 65.528366,25.793642 43.205554,42.875174 32.005233,67.194095 24.954312,82.66668 23.61553,101.03508 30.313688,116.86535 c -0.687074,-0.70039 -1.172404,-1.56047 -1.728883,-2.35947 z"
       id="path1" />
  </g>
</svg>
